<?xml version="1.0" encoding="UTF-8" standalone="no"?>
<svg
   xmlns:dc="http://purl.org/dc/elements/1.1/"
   xmlns:cc="http://creativecommons.org/ns#"
   xmlns:rdf="http://www.w3.org/1999/02/22-rdf-syntax-ns#"
   xmlns:svg="http://www.w3.org/2000/svg"
   xmlns="http://www.w3.org/2000/svg"
   xmlns:sodipodi="http://sodipodi.sourceforge.net/DTD/sodipodi-0.dtd"
   xmlns:inkscape="http://www.inkscape.org/namespaces/inkscape"
   id="emoji"
   viewBox="0 0 72 72"
   version="1.1"
   sodipodi:docname="logo.svg"
   inkscape:version="1.0.2 (e86c870879, 2021-01-15)">
  <metadata
     id="metadata54">
    <rdf:RDF>
      <cc:Work
         rdf:about="">
        <dc:format>image/svg+xml</dc:format>
        <dc:type
           rdf:resource="http://purl.org/dc/dcmitype/StillImage" />
        <dc:title></dc:title>
      </cc:Work>
    </rdf:RDF>
  </metadata>
  <defs
     id="defs52" />
  <sodipodi:namedview
     pagecolor="#ffffff"
     bordercolor="#666666"
     borderopacity="1"
     objecttolerance="10"
     gridtolerance="10"
     guidetolerance="10"
     inkscape:pageopacity="0"
     inkscape:pageshadow="2"
     inkscape:window-width="1920"
     inkscape:window-height="1016"
     id="namedview50"
     showgrid="false"
     inkscape:zoom="12.284879"
     inkscape:cx="58.609281"
     inkscape:cy="35.594098"
     inkscape:window-x="0"
     inkscape:window-y="27"
     inkscape:window-maximized="1"
     inkscape:current-layer="color" />
  <g
     id="line-supplement">
    <path
       fill="none"
       stroke="#000"
       stroke-linecap="round"
       stroke-linejoin="round"
       stroke-width="2"
       d="M21 13L19 18L24 20L26 29L21 34L23 37L20 39V40L25 47L29 45M34.5 56L36 53L39 51L46 55L51 54V50L49 48L50.5 44.5"
       id="path2" />
  </g>
  <g
     id="color">
    <g
       id="g9">
      <path
         fill="#B1CC33"
         fill-rule="evenodd"
         d="M25 13L12 12V24L12.9967 35.04L12 47V59L25 60L36 59L48 60L60 59V47L59.0033 35.04L60 24V12L48 13L36 12L25 13Z"
         clip-rule="evenodd"
         id="path5"
         style="fill:#1bb9d9;fill-opacity:1" />
      <path
         fill="#B1CC33"
         d="M12 12L12.0767 11.0029C11.799 10.9816 11.5249 11.077 11.3206 11.2663C11.1162 11.4555 11 11.7215 11 12H12ZM25 13L24.9233 13.9971C24.979 14.0013 25.0349 14.0009 25.0905 13.9959L25 13ZM12 24H11C11 24.03 11.0014 24.06 11.0041 24.0899L12 24ZM12.9967 35.04L13.9932 35.123C13.998 35.0655 13.9978 35.0076 13.9926 34.9501L12.9967 35.04ZM12 47L11.0035 46.917C11.0012 46.9446 11 46.9723 11 47H12ZM12 59H11C11 59.5225 11.4023 59.957 11.9233 59.9971L12 59ZM25 60L24.9233 60.9971C24.979 61.0013 25.0349 61.0009 25.0905 60.9959L25 60ZM36 59L36.083 58.0035C36.0253 57.9986 35.9672 57.9989 35.9095 58.0041L36 59ZM48 60L47.917 60.9965C47.9722 61.0012 48.0278 61.0012 48.083 60.9965L48 60ZM60 59L60.083 59.9965C60.6013 59.9534 61 59.5201 61 59H60ZM60 47H61C61 46.9723 60.9988 46.9446 60.9965 46.917L60 47ZM59.0033 35.04L58.0074 34.9501C58.0022 35.0076 58.002 35.0655 58.0068 35.123L59.0033 35.04ZM60 24L60.9959 24.0899C60.9986 24.06 61 24.03 61 24H60ZM60 12H61C61 11.7203 60.8829 11.4535 60.6771 11.2641C60.4713 11.0748 60.1956 10.9802 59.917 11.0035L60 12ZM48 13L47.917 13.9965C47.9722 14.0012 48.0278 14.0012 48.083 13.9965L48 13ZM36 12L36.083 11.0035C36.0253 10.9986 35.9672 10.9989 35.9095 11.0041L36 12ZM11.9233 12.9971L24.9233 13.9971L25.0767 12.0029L12.0767 11.0029L11.9233 12.9971ZM13 24V12H11V24H13ZM13.9926 34.9501L12.9959 23.9101L11.0041 24.0899L12.0007 35.1299L13.9926 34.9501ZM12.9965 47.083L13.9932 35.123L12.0001 34.957L11.0035 46.917L12.9965 47.083ZM13 59V47H11V59H13ZM25.0767 59.0029L12.0767 58.0029L11.9233 59.9971L24.9233 60.9971L25.0767 59.0029ZM35.9095 58.0041L24.9095 59.0041L25.0905 60.9959L36.0905 59.9959L35.9095 58.0041ZM48.083 59.0035L36.083 58.0035L35.917 59.9965L47.917 60.9965L48.083 59.0035ZM59.917 58.0035L47.917 59.0035L48.083 60.9965L60.083 59.9965L59.917 58.0035ZM59 47V59H61V47H59ZM58.0068 35.123L59.0035 47.083L60.9965 46.917L59.9999 34.957L58.0068 35.123ZM59.0041 23.9101L58.0074 34.9501L59.9993 35.1299L60.9959 24.0899L59.0041 23.9101ZM59 12V24H61V12H59ZM48.083 13.9965L60.083 12.9965L59.917 11.0035L47.917 12.0035L48.083 13.9965ZM35.917 12.9965L47.917 13.9965L48.083 12.0035L36.083 11.0035L35.917 12.9965ZM25.0905 13.9959L36.0905 12.9959L35.9095 11.0041L24.9095 12.0041L25.0905 13.9959Z"
         id="path7"
         style="fill:#1bb9d9;fill-opacity:1" />
    </g>
    <path
       fill="none"
       stroke="#ea5a47"
       stroke-linejoin="round"
       stroke-width="2"
       d="m 60.000089,46.346473 c -0.06967,-0.01641 0.04139,-6.486919 0.865954,-24.990404 C 61.037665,17.504819 61,12 61,12 61,12 59.917,11.0035 49.578334,11.620696 42.533948,12.04123 35.876058,11.15199 35.411514,11.447587 c -1.924816,1.224793 -5.642521,4.89329 -5.708934,5.42912 -0.374035,3.017772 -1.762321,6.800414 -6.234034,7.52967 l 2.9119,4.689752 -5,5 2,3 -3,2 v 1 l 5,7 4,-2 4,6 c 3.786421,3.581094 3.341979,6.950015 7.912206,1.823739 l 3.180336,2.924944 3.478951,-0.60683 3.428507,-1.141853 c -0.675731,-1.996981 -1.337177,-3.998713 -2,-6 0,0 3.477456,-0.599654 5.706888,-2.438159 2.057449,-0.427632 5.183828,3.763256 4.912755,0.688503"
       id="path11-7"
       sodipodi:nodetypes="cscssscccccccccccccccc"
       style="fill:#527bb6;fill-opacity:1;stroke:none;stroke-opacity:1" />
    <path
       fill="none"
       stroke="#ea5a47"
       stroke-linejoin="round"
       stroke-width="2"
       d="m 35.619554,11.90387 c -1.593008,-0.375265 -6.203962,4.122674 -6.29742,4.876708 -0.374036,3.017772 -1.762321,6.800414 -6.234034,7.52967 L 26,29 l -5,5 2,3 -3,2 v 1 l 5,7 4,-2 4,6 c 3.786421,3.581094 3.341979,6.950015 7.912206,1.823739 l 3.180336,2.924944 3.478951,-0.60683 L 51,54 c -0.675731,-1.996981 -1.337177,-3.998713 -2,-6 0,0 3.477456,-0.599654 5.706888,-2.438159 2.057449,-0.427632 5.564274,3.859385 5.293201,0.784632"
       id="path11"
       sodipodi:nodetypes="cscccccccccccccccc"
       style="fill:none;fill-opacity:0.421182;stroke:#9e2886;stroke-opacity:1" />
    <path
       fill="#92D3F5"
       fill-rule="evenodd"
       d="M50.9731 14.6183C50.66 18.1947 47.6576 21 44 21C41.7909 21 40 22.7909 40 25C40 27.2091 41.7909 29 44 29C47.866 29 51 32.134 51 36C51 37.3414 50.6227 38.5947 49.9684 39.6596C49.015 39.8822 48.0212 40 47 40C42.9791 40 39.3846 38.1745 37 35.3071V18.6929C39.3846 15.8255 42.9791 14 47 14C48.3857 14 49.7207 14.2168 50.9731 14.6183Z"
       clip-rule="evenodd"
       id="path23" />
    <path
       fill="#61B2E4"
       fill-rule="evenodd"
       d="M50.5686 33.5751C50.8476 34.3306 51 35.1475 51 36C51 36.5419 50.9384 37.0695 50.8219 37.5761C48.3133 38.1901 45.5746 38.1407 43.4303 37.4932C45.2249 37.1574 48.0933 36.0048 50.5686 33.5751Z"
       clip-rule="evenodd"
       id="path27" />
    <path
       fill="#D0CFCE"
       d="M55.1011 15.1854C51.8327 13.1017 47.9499 12.4137 44.1638 13.2482C40.3788 14.0848 37.1456 16.3452 35.0597 19.6127C30.7561 26.3587 32.7421 35.3496 39.488 39.6542C46.233 43.9589 55.2228 41.9739 59.5295 35.2269C61.6144 31.9594 62.3023 28.0745 61.4657 24.2895C60.6291 20.5044 58.3697 17.2713 55.1011 15.1854ZM56.9374 33.573C54.7586 36.9877 51.0555 38.8544 47.2763 38.8544C45.1718 38.8553 43.0444 38.2759 41.142 37.062C35.8248 33.6694 34.2602 26.5829 37.6528 21.2666C39.2964 18.6912 41.8443 16.909 44.8275 16.2507C47.8116 15.5923 50.8719 16.1331 53.4483 17.7776C56.0238 19.4202 57.805 21.9681 58.4643 24.9523C59.1236 27.9354 58.5809 30.9966 56.9374 33.573Z"
       id="path29"
       style="fill:#ffffff;fill-opacity:1" />
    <circle
       style="fill:#527bb6;fill-opacity:1;fill-rule:evenodd;stroke-width:1.06573"
       id="path921"
       cx="47.35495"
       cy="27.431414"
       r="11.817745" />
    <path
       fill="none"
       stroke="#ffffff"
       stroke-linecap="round"
       stroke-width="2"
       d="m 41.600899,31.531774 v -9.5"
       id="path33"
       style="fill:#ef0202;fill-opacity:1;stroke:#ff6b6b;stroke-opacity:1" />
    <path
       fill="none"
       stroke="#ffffff"
       stroke-linecap="round"
       stroke-width="2"
       d="m 44.600899,31.784222 v -7.07898"
       id="path35"
       sodipodi:nodetypes="cc"
       style="stroke:#feca57;stroke-opacity:1" />
    <path
       fill="none"
       stroke="#ffffff"
       stroke-linecap="round"
       stroke-width="2"
       d="M 47.755635,32.047858 V 23.930259"
       id="path37"
       sodipodi:nodetypes="cc"
       style="stroke:#feb757;stroke-opacity:1" />
    <path
       fill="none"
       stroke="#ffffff"
       stroke-linecap="round"
       stroke-width="2"
       d="M 50.780932,32.064434 V 27.150999"
       id="path35-3"
       sodipodi:nodetypes="cc"
       style="stroke:#daed57;stroke-opacity:1" />
    <path
       fill="none"
       stroke="#ffffff"
       stroke-linecap="round"
       stroke-width="2"
       d="M 54.15749,31.9306 V 29.709828"
       id="path37-6"
       sodipodi:nodetypes="cc"
       style="stroke:#1dd1a1;stroke-opacity:1" />
  </g>
  <g
     id="line"
     style="stroke:#9e2886;stroke-opacity:1">
    <path
       fill="none"
       stroke="#000"
       stroke-linecap="round"
       stroke-linejoin="round"
       stroke-miterlimit="10"
       stroke-width="2"
       d="m 38.693374,38.986452 2.676968,1.298774 -11.501343,19.069058 c -0.7427,1.1326 -2.100891,2.246304 -3.305791,1.498304 -1.205,-0.7481 -1.017959,-2.485088 -0.275259,-3.617788 z"
       id="path44"
       style="fill:#ffffff;fill-opacity:1;stroke:#ffffff;stroke-opacity:1"
       sodipodi:nodetypes="cccccc" />
    <path
       fill="none"
       stroke="#000"
       stroke-linecap="round"
       stroke-linejoin="round"
       stroke-width="2"
       d="M 40,12.3333 36,12 25,13 12,12 V 24 L 12.9967,35.04 12,47 v 12 l 9,0.6923 M 54.2656,12.4779 60,12 v 4.5 M 59.375,39.5 60,47 V 59 L 48,60 34.711763,59.465911"
       id="path46"
       style="stroke:#ffffff;stroke-opacity:1"
       sodipodi:nodetypes="ccccccccccccccccc" />
  </g>
</svg>
